<?xml version="1.0" encoding="UTF-8"?><svg id="Layer_2" xmlns="http://www.w3.org/2000/svg" viewBox="0 0 478.72 148.51"><defs><style>.cls-1{fill-rule:evenodd;}.cls-1,.cls-2{fill:#512f86;}</style></defs><g id="Layer_1-2"><g><g id="surface1"><path class="cls-1" d="M336.02,13.6c-6.42,0-14.22-.95-19.52-.23-12.54,1.68-23.08,9.61-28.58,20.48-.53,1.05-.86,1.98-1.48,2.83l-.16-12.38c-6.55-.26-13.04-.07-19.66-.13l.03,75.6,20.31-.07c.43-2.24,.13-43.79,.13-47.21,0-4.31,.1-6.75,2.37-9.38,5.53-6.49,21.66-6.95,29.9-6.95,16.27,0,29.4-2.96,38.88-14.36,3.26-3.92,6.12-8.49,7.97-13.43l1.94-6.12c0-.13,.2-.95,.2-.99,.03-1.51,.07-.69-.36-1.25-1.22,3.59-7.97,8.07-12.64,10.01-5.5,2.27-12.74,3.62-19.33,3.59"/><path class="cls-1" d="M120.75,71.05c-.07,3.65,.56,8.2-.92,11.16-1.09,2.21-3.62,4.38-6.06,5.53-4.74,2.27-13.8,4.02-18.41,.23-2.04-1.71-3.16-5.53-1.25-8.59,2.96-4.81,11.72-5,17.29-5.89,4.08-.63,5.89-1.35,9.35-2.44Zm-45.4-11.52l19.43-.03c1.45-3.69,1.45-5.04,4.87-6.68,4.44-2.07,16.1-2.07,19.62,1.45,1.45,1.48,2.93,5.63-1.38,7.57-6.88,3.13-27.36,.59-38.39,8.56-8.76,6.32-11.03,22.88,4.84,28.91,6.19,2.34,14.03,2.5,20.81,1.25,4.94-.92,8.69-2.63,12.71-5.14,1.25-.79,2.27-1.78,3.39-2.4,.63,2.8,.82,4.18,1.91,6.68l21.93,.03,.03-2.34c-1.42-.86-1.61-.43-2.7-1.75-.72-.92-1.15-2.01-1.42-3.36-.63-3.13-.33-23.51-.33-27.59,0-11.56,1.48-18.77-13.8-23.71-10.11-3.29-35.72-4.64-45.8,5.73-1.84,1.88-2.67,2.86-3.85,5.4-.82,1.75-2.01,5.33-1.88,7.41"/><path class="cls-1" d="M341.29,71.02c.56,2.67,.4,8.89-.66,11.1-1.15,2.44-3.49,4.25-6.03,5.56-12.58,6.45-24.69-.03-19.66-8.4,3.95-6.59,19.52-4.18,26.34-8.26Zm-45.04-11.52h19.39c1.19-3.62,1.91-5.37,4.87-6.72,4.21-1.91,15.97-2.27,19.52,1.65,2.63,2.86,1.58,6.19-1.71,7.54-7.64,3.13-27.66,.46-38.29,8.66-4.02,3.06-7.64,8.69-6.19,16.59,2.44,13.53,20.71,15.47,32.2,13.3,5.53-1.05,10.04-3.13,14.39-6.45,.36-.26,.46-.4,.89-.63,1.32-.72,.43,1.12,2.54,6.19l21.9,.07,.13-2.47c-5.43-1.68-4.44-7.93-4.44-14.09v-18.73c0-10.96,1.38-18.64-13.66-23.38-9.09-2.83-24.04-3.03-33.48-.76-5.17,1.22-9.61,3.52-12.41,6.35-2.77,2.77-6.35,9.52-5.63,12.87"/><path class="cls-1" d="M391.66,80.86c-.36,4.02,1.91,7.77,3.72,10.11,9.35,12.05,41.26,12.64,55.58,6.32,6.06-2.63,11.75-7.64,11.79-16.27,0-15.31-22.98-16.86-36.74-19.23-3.46-.59-8.43-1.51-10.6-3.36-2.07-1.75-1.48-5.96,4.97-7.18,3.69-.72,9.25-.76,12.84,.1,4.02,.92,6.45,2.77,7.14,7.08h19.95c.07-8.69-7.08-14.29-13.63-16.69-12.58-4.68-39.74-5.1-48.43,6.39-2.17,2.83-4.12,6.26-3.85,11.16,.26,5.14,2.73,7.67,5.47,9.91,7.77,6.39,26.14,6.91,35.99,9.55,3.59,.95,9.35,3.46,5.14,7.64-4.48,4.41-26.18,5.2-28.12-3.72-.53-2.4,.66-1.88-5.79-1.88-4.77,0-10.77-.33-15.41,.07"/><path class="cls-1" d="M20.43,48.96l-.03-8.53-19.52-.13-.03,59.4H21.29v-30.85c0-5.63,.13-8.96,3.36-12.25,5.89-5.99,18.96-5.89,23.44-1.02,2.77,3,2.34,8.23,2.34,12.97l.13,31.15h20.15l.1-30.26c0-8.89,1.45-18.47-6.03-24.3-11.19-8.79-33.45-8.99-42.37,1.81l-1.98,2.01"/><path class="cls-1" d="M239.91,91.53l.16,8.13,19.46,.07,.1-59.4-20.48-.03c-.3,10.21,0,20.78,0,30.92,0,6.85-.56,12.48-7.8,15.47-5.56,2.3-14.68,2.21-18.54-1.98-3.06-3.39-2.57-7.8-2.57-13.2,0-10.4-.07-20.81,0-31.21h-20.31c-.26,4.91-.53,40.23,.46,44.81,3.92,17.98,28.88,18.96,41.12,13.04,4.08-1.98,5.99-4.02,8.4-6.62"/><path class="cls-1" d="M152.49,40.27l-10.4,.03v11.39h10.37c.23,7.18-.59,36.02,.53,40.23,1.45,5.37,6.35,7.24,12.45,8.03,5.17,.66,14.68,.79,19.92,.16l.2-11.75c-2.7,.33-9.25,.59-11.33-.72-2.21-1.45-1.28-7.93-1.28-11.06,0-8.26,.07-16.56-.03-24.79l12.64-.13,.03-11.29-12.68-.1,.03-16.13-20.48,.03,.03,16.1"/><path class="cls-1" d="M368.48,24.13h20.35V99.7h-20.35V24.13"/><path class="cls-2" d="M470.58,31.77c1.35,0,2.7,.33,4.02,1.05,1.28,.69,2.3,1.68,3.03,3,.72,1.32,1.09,2.67,1.09,4.08s-.36,2.77-1.05,4.05c-.72,1.28-1.75,2.3-3.03,3.03-1.28,.72-2.63,1.05-4.05,1.05-1.42,0-2.77-.33-4.05-1.05-1.32-.72-2.3-1.75-3.03-3.03-.72-1.28-1.09-2.63-1.09-4.05,0-1.42,.36-2.77,1.09-4.08,.76-1.32,1.78-2.3,3.06-3,1.32-.72,2.63-1.05,4.02-1.05Zm0,1.32c-1.15,0-2.27,.3-3.36,.89-1.09,.59-1.91,1.45-2.54,2.54-.63,1.09-.92,2.21-.92,3.39,0,1.19,.3,2.3,.92,3.39,.59,1.05,1.42,1.91,2.5,2.5,1.09,.59,2.21,.89,3.39,.89,1.15,0,2.3-.3,3.39-.89,1.05-.59,1.91-1.45,2.5-2.5,.59-1.09,.89-2.21,.89-3.39,0-1.19-.3-2.3-.92-3.39-.59-1.09-1.45-1.94-2.54-2.54s-2.21-.89-3.33-.89Zm-3.59,11.33v-8.76h3.03c1.02,0,1.78,.07,2.24,.23s.82,.43,1.09,.86c.26,.4,.43,.82,.43,1.28,0,.63-.23,1.19-.69,1.65-.46,.49-1.09,.76-1.84,.82,.33,.13,.56,.26,.76,.46,.36,.33,.79,.92,1.28,1.75l1.09,1.71h-1.71l-.79-1.38c-.63-1.09-1.12-1.78-1.48-2.04-.26-.2-.63-.3-1.12-.3h-.86v3.72h-1.42Zm1.42-4.94h1.71c.82,0,1.38-.13,1.68-.36,.3-.26,.46-.56,.46-.99,0-.23-.07-.46-.23-.69-.13-.2-.33-.33-.59-.43-.26-.13-.72-.16-1.42-.16h-1.61v2.63"/></g><g><path class="cls-2" d="M0,142.02v-22.07H2.92v22.07H0Z"/><path class="cls-2" d="M7.72,142.02v-15.99h2.44v2.27c1.17-1.76,2.87-2.63,5.09-2.63,.96,0,1.85,.17,2.66,.52,.81,.35,1.41,.8,1.81,1.36,.4,.56,.68,1.23,.84,2,.1,.5,.15,1.38,.15,2.64v9.83h-2.71v-9.73c0-1.1-.11-1.93-.32-2.48-.21-.55-.59-.98-1.12-1.31-.54-.33-1.17-.49-1.89-.49-1.15,0-2.15,.37-2.99,1.1-.84,.73-1.26,2.12-1.26,4.17v8.73h-2.71Z"/><path class="cls-2" d="M35.25,142.02v-2.02c-1.01,1.59-2.51,2.38-4.47,2.38-1.28,0-2.45-.35-3.52-1.05-1.07-.7-1.9-1.68-2.48-2.94-.59-1.26-.88-2.71-.88-4.34s.27-3.04,.8-4.34c.53-1.3,1.33-2.3,2.39-2.99,1.06-.69,2.25-1.04,3.57-1.04,.96,0,1.82,.2,2.58,.61,.75,.41,1.36,.94,1.84,1.59v-7.92h2.7v22.07h-2.51Zm-8.57-7.98c0,2.05,.43,3.58,1.29,4.59,.86,1.01,1.88,1.52,3.06,1.52s2.19-.48,3.02-1.45c.83-.97,1.24-2.45,1.24-4.43,0-2.19-.42-3.79-1.26-4.82-.84-1.02-1.88-1.54-3.12-1.54-1.2,0-2.21,.49-3.02,1.48-.81,.98-1.21,2.54-1.21,4.65Z"/><path class="cls-2" d="M42.04,123.06v-3.12h2.71v3.12h-2.71Zm0,18.96v-15.99h2.71v15.99h-2.71Z"/><path class="cls-2" d="M59.31,140.05c-1,.85-1.97,1.45-2.9,1.81-.93,.35-1.92,.53-2.99,.53-1.76,0-3.11-.43-4.05-1.29-.94-.86-1.42-1.95-1.42-3.29,0-.78,.18-1.5,.53-2.15,.36-.65,.82-1.17,1.4-1.56,.58-.39,1.23-.69,1.95-.89,.53-.14,1.33-.28,2.41-.41,2.19-.26,3.8-.57,4.83-.93,.01-.37,.02-.61,.02-.71,0-1.1-.26-1.88-.77-2.33-.69-.61-1.72-.92-3.09-.92-1.28,0-2.22,.22-2.82,.67-.61,.45-1.06,1.24-1.35,2.37l-2.65-.36c.24-1.13,.64-2.05,1.19-2.75,.55-.7,1.35-1.23,2.39-1.61,1.04-.38,2.25-.56,3.63-.56,1.36,0,2.47,.16,3.33,.48,.85,.32,1.48,.72,1.88,1.21,.4,.49,.68,1.1,.84,1.84,.09,.46,.14,1.29,.14,2.5v3.61c0,2.52,.06,4.11,.17,4.78,.12,.67,.34,1.31,.69,1.92h-2.83c-.28-.56-.46-1.22-.54-1.97Zm-.23-6.05c-.98,.4-2.46,.74-4.43,1.02-1.11,.16-1.9,.34-2.36,.54-.46,.2-.82,.49-1.07,.88-.25,.39-.38,.82-.38,1.29,0,.72,.27,1.32,.82,1.81,.55,.48,1.35,.72,2.4,.72,1.04,0,1.97-.23,2.78-.69,.81-.46,1.41-1.08,1.79-1.87,.29-.61,.44-1.52,.44-2.71v-.99Z"/><path class="cls-2" d="M65.86,122.87v-3.15h2.91v2.48c0,1.35-.16,2.31-.47,2.91-.43,.81-1.1,1.43-2.02,1.84l-.66-1.07c.54-.22,.95-.57,1.21-1.05,.27-.48,.41-1.13,.44-1.96h-1.42Z"/><path class="cls-2" d="M71.23,137.25l2.68-.42c.15,1.07,.57,1.9,1.26,2.47,.69,.57,1.65,.86,2.88,.86,1.25,0,2.17-.25,2.77-.76,.6-.51,.9-1.1,.9-1.78,0-.61-.27-1.09-.8-1.45-.37-.24-1.29-.55-2.77-.92-1.99-.5-3.37-.94-4.13-1.3-.77-.37-1.35-.87-1.75-1.52-.4-.65-.59-1.36-.59-2.15,0-.71,.16-1.37,.49-1.98,.33-.61,.77-1.11,1.33-1.51,.42-.31,1-.57,1.72-.79s1.51-.32,2.34-.32c1.25,0,2.36,.18,3.31,.54,.95,.36,1.65,.85,2.1,1.47,.45,.62,.76,1.44,.93,2.48l-2.65,.36c-.12-.82-.47-1.47-1.05-1.93-.58-.46-1.39-.69-2.45-.69-1.24,0-2.13,.21-2.67,.62-.53,.41-.8,.89-.8,1.45,0,.35,.11,.67,.33,.95,.22,.29,.57,.53,1.04,.72,.27,.1,1.07,.33,2.39,.69,1.92,.51,3.25,.93,4.01,1.26,.76,.33,1.35,.8,1.78,1.42,.43,.62,.65,1.39,.65,2.32,0,.9-.26,1.75-.79,2.55-.53,.8-1.29,1.42-2.28,1.85-.99,.44-2.12,.65-3.37,.65-2.08,0-3.66-.43-4.75-1.29-1.09-.86-1.78-2.14-2.09-3.84Z"/><path class="cls-2" d="M96.62,142.02v-22.07h3l11.59,17.33v-17.33h2.8v22.07h-3l-11.59-17.35v17.35h-2.8Z"/><path class="cls-2" d="M117.56,134.02c0-2.96,.82-5.15,2.47-6.58,1.38-1.18,3.05-1.78,5.03-1.78,2.2,0,3.99,.72,5.39,2.16,1.39,1.44,2.09,3.43,2.09,5.97,0,2.06-.31,3.68-.93,4.86-.62,1.18-1.52,2.1-2.7,2.75-1.18,.65-2.47,.98-3.86,.98-2.24,0-4.05-.72-5.43-2.15-1.38-1.44-2.07-3.5-2.07-6.2Zm2.79,0c0,2.05,.45,3.58,1.34,4.6,.89,1.02,2.02,1.53,3.37,1.53,1.35,0,2.46-.51,3.36-1.54,.89-1.02,1.34-2.58,1.34-4.68,0-1.98-.45-3.48-1.35-4.49-.9-1.02-2.02-1.53-3.35-1.53-1.36,0-2.48,.51-3.37,1.52-.89,1.01-1.34,2.54-1.34,4.59Z"/><path class="cls-2" d="M136.49,142.02v-3.09h3.09v3.09h-3.09Z"/><path class="cls-2" d="M153.74,142.02h-2.71v-17.27c-.65,.62-1.51,1.24-2.57,1.87-1.06,.62-2.01,1.09-2.85,1.4v-2.62c1.52-.71,2.84-1.58,3.97-2.59,1.13-1.01,1.94-2,2.41-2.95h1.75v22.16Z"/><path class="cls-2" d="M170.01,142.02v-22.07h2.71v7.92c1.26-1.47,2.86-2.2,4.79-2.2,1.18,0,2.21,.23,3.09,.7,.87,.47,1.5,1.11,1.87,1.93,.38,.82,.56,2.02,.56,3.58v10.13h-2.71v-10.13c0-1.36-.29-2.34-.88-2.96-.59-.62-1.42-.93-2.49-.93-.8,0-1.56,.21-2.27,.63-.71,.42-1.21,.98-1.51,1.69s-.45,1.7-.45,2.95v8.75h-2.71Z"/><path class="cls-2" d="M197.59,140.05c-1,.85-1.97,1.45-2.9,1.81-.93,.35-1.92,.53-2.99,.53-1.76,0-3.11-.43-4.05-1.29-.94-.86-1.42-1.95-1.42-3.29,0-.78,.18-1.5,.53-2.15s.82-1.17,1.4-1.56c.58-.39,1.23-.69,1.95-.89,.53-.14,1.33-.28,2.41-.41,2.19-.26,3.8-.57,4.83-.93,.01-.37,.02-.61,.02-.71,0-1.1-.26-1.88-.77-2.33-.69-.61-1.72-.92-3.09-.92-1.28,0-2.22,.22-2.82,.67-.61,.45-1.06,1.24-1.35,2.37l-2.65-.36c.24-1.13,.64-2.05,1.19-2.75,.55-.7,1.35-1.23,2.39-1.61,1.04-.38,2.25-.56,3.63-.56,1.36,0,2.47,.16,3.33,.48,.85,.32,1.48,.72,1.88,1.21,.4,.49,.68,1.1,.84,1.84,.09,.46,.14,1.29,.14,2.5v3.61c0,2.52,.06,4.11,.17,4.78,.12,.67,.34,1.31,.69,1.92h-2.83c-.28-.56-.46-1.22-.54-1.97Zm-.23-6.05c-.98,.4-2.46,.74-4.43,1.02-1.11,.16-1.9,.34-2.36,.54-.46,.2-.82,.49-1.07,.88-.25,.39-.38,.82-.38,1.29,0,.72,.27,1.32,.82,1.81,.55,.48,1.35,.72,2.4,.72,1.04,0,1.97-.23,2.78-.69,.81-.46,1.41-1.08,1.79-1.87,.29-.61,.44-1.52,.44-2.71v-.99Z"/><path class="cls-2" d="M204.32,123.06v-3.12h2.71v3.12h-2.71Zm0,18.96v-15.99h2.71v15.99h-2.71Z"/><path class="cls-2" d="M211.13,142.02v-15.99h2.44v2.42c.62-1.13,1.2-1.88,1.72-2.24,.53-.36,1.11-.54,1.74-.54,.91,0,1.84,.29,2.79,.87l-.93,2.51c-.66-.39-1.33-.59-1.99-.59-.59,0-1.12,.18-1.6,.53-.47,.36-.81,.85-1.01,1.48-.3,.96-.45,2.02-.45,3.16v8.37h-2.71Z"/><path class="cls-2" d="M240.43,140.05c-1,.85-1.97,1.45-2.9,1.81-.93,.35-1.92,.53-2.99,.53-1.76,0-3.11-.43-4.05-1.29-.94-.86-1.42-1.95-1.42-3.29,0-.78,.18-1.5,.53-2.15,.36-.65,.82-1.17,1.4-1.56,.58-.39,1.23-.69,1.95-.89,.53-.14,1.33-.28,2.41-.41,2.19-.26,3.8-.57,4.83-.93,.01-.37,.02-.61,.02-.71,0-1.1-.26-1.88-.77-2.33-.69-.61-1.72-.92-3.09-.92-1.28,0-2.22,.22-2.82,.67-.61,.45-1.06,1.24-1.35,2.37l-2.65-.36c.24-1.13,.64-2.05,1.19-2.75,.55-.7,1.35-1.23,2.39-1.61,1.04-.38,2.25-.56,3.63-.56,1.36,0,2.47,.16,3.33,.48,.85,.32,1.48,.72,1.88,1.21,.4,.49,.68,1.1,.84,1.84,.09,.46,.14,1.29,.14,2.5v3.61c0,2.52,.06,4.11,.17,4.78,.12,.67,.34,1.31,.69,1.92h-2.83c-.28-.56-.46-1.22-.54-1.97Zm-.23-6.05c-.98,.4-2.46,.74-4.43,1.02-1.11,.16-1.9,.34-2.36,.54-.46,.2-.82,.49-1.07,.88-.25,.39-.38,.82-.38,1.29,0,.72,.27,1.32,.82,1.81,.55,.48,1.35,.72,2.4,.72,1.04,0,1.97-.23,2.78-.69,.81-.46,1.41-1.08,1.79-1.87,.29-.61,.44-1.52,.44-2.71v-.99Z"/><path class="cls-2" d="M247.14,142.02v-15.99h2.44v2.27c1.17-1.76,2.87-2.63,5.09-2.63,.96,0,1.85,.17,2.66,.52,.81,.35,1.41,.8,1.81,1.36,.4,.56,.68,1.23,.84,2,.1,.5,.15,1.38,.15,2.64v9.83h-2.71v-9.73c0-1.1-.11-1.93-.32-2.48-.21-.55-.59-.98-1.12-1.31s-1.17-.49-1.89-.49c-1.15,0-2.15,.37-2.99,1.1-.84,.73-1.26,2.12-1.26,4.17v8.73h-2.71Z"/><path class="cls-2" d="M274.67,142.02v-2.02c-1.01,1.59-2.51,2.38-4.47,2.38-1.28,0-2.45-.35-3.52-1.05-1.07-.7-1.9-1.68-2.48-2.94-.59-1.26-.88-2.71-.88-4.34,0-1.6,.27-3.04,.8-4.34,.53-1.3,1.33-2.3,2.39-2.99,1.06-.69,2.25-1.04,3.57-1.04,.96,0,1.82,.2,2.58,.61,.75,.41,1.36,.94,1.84,1.59v-7.92h2.7v22.07h-2.51Zm-8.57-7.98c0,2.05,.43,3.58,1.29,4.59,.86,1.01,1.88,1.52,3.06,1.52,1.18,0,2.19-.48,3.02-1.45,.83-.97,1.24-2.45,1.24-4.43,0-2.19-.42-3.79-1.26-4.82-.84-1.02-1.88-1.54-3.12-1.54s-2.21,.49-3.02,1.48c-.81,.98-1.21,2.54-1.21,4.65Z"/><path class="cls-2" d="M292.51,142.02h-2.51v-22.07h2.71v7.87c1.14-1.44,2.6-2.15,4.38-2.15,.98,0,1.91,.2,2.79,.59s1.6,.95,2.17,1.67c.57,.72,1.01,1.58,1.33,2.6,.32,1.01,.48,2.1,.48,3.25,0,2.74-.68,4.86-2.03,6.35-1.36,1.5-2.98,2.24-4.88,2.24-1.89,0-3.37-.79-4.44-2.36v2Zm-.03-8.12c0,1.92,.26,3.3,.78,4.16,.85,1.4,2.01,2.09,3.46,2.09,1.18,0,2.21-.51,3.07-1.54s1.29-2.56,1.29-4.6c0-2.09-.41-3.63-1.24-4.62-.83-.99-1.83-1.49-3-1.49-1.18,0-2.21,.51-3.07,1.54-.86,1.03-1.3,2.52-1.3,4.46Z"/><path class="cls-2" d="M318.1,136.87l2.8,.35c-.44,1.64-1.26,2.91-2.45,3.81-1.19,.9-2.72,1.35-4.58,1.35-2.34,0-4.19-.72-5.56-2.16-1.37-1.44-2.06-3.46-2.06-6.06,0-2.69,.69-4.78,2.08-6.26,1.39-1.49,3.18-2.23,5.39-2.23,2.14,0,3.88,.73,5.24,2.18,1.35,1.46,2.03,3.5,2.03,6.14,0,.16,0,.4-.01,.72h-11.92c.1,1.76,.6,3.1,1.49,4.03s2.01,1.4,3.34,1.4c.99,0,1.84-.26,2.55-.78,.7-.52,1.26-1.35,1.67-2.5Zm-8.9-4.38h8.93c-.12-1.35-.46-2.35-1.02-3.03-.86-1.04-1.98-1.57-3.36-1.57-1.25,0-2.29,.42-3.14,1.25-.85,.83-1.32,1.95-1.41,3.34Z"/><path class="cls-2" d="M334.74,140.05c-1,.85-1.97,1.45-2.9,1.81-.93,.35-1.92,.53-2.99,.53-1.76,0-3.11-.43-4.05-1.29-.94-.86-1.42-1.95-1.42-3.29,0-.78,.18-1.5,.53-2.15,.36-.65,.82-1.17,1.4-1.56,.58-.39,1.23-.69,1.95-.89,.53-.14,1.33-.28,2.41-.41,2.19-.26,3.8-.57,4.83-.93,.01-.37,.02-.61,.02-.71,0-1.1-.26-1.88-.77-2.33-.69-.61-1.72-.92-3.09-.92-1.28,0-2.22,.22-2.82,.67-.61,.45-1.06,1.24-1.35,2.37l-2.65-.36c.24-1.13,.64-2.05,1.19-2.75,.55-.7,1.35-1.23,2.39-1.61,1.04-.38,2.25-.56,3.63-.56s2.47,.16,3.33,.48c.85,.32,1.48,.72,1.88,1.21,.4,.49,.68,1.1,.84,1.84,.09,.46,.14,1.29,.14,2.5v3.61c0,2.52,.06,4.11,.17,4.78,.12,.67,.34,1.31,.69,1.92h-2.83c-.28-.56-.46-1.22-.54-1.97Zm-.23-6.05c-.98,.4-2.46,.74-4.43,1.02-1.11,.16-1.9,.34-2.36,.54-.46,.2-.82,.49-1.07,.88-.25,.39-.38,.82-.38,1.29,0,.72,.27,1.32,.82,1.81,.55,.48,1.35,.72,2.4,.72,1.04,0,1.97-.23,2.78-.69,.81-.46,1.41-1.08,1.79-1.87,.29-.61,.44-1.52,.44-2.71v-.99Z"/><path class="cls-2" d="M351.94,142.02v-2.35c-1.24,1.81-2.94,2.71-5.07,2.71-.94,0-1.82-.18-2.64-.54-.82-.36-1.43-.82-1.82-1.36s-.67-1.22-.84-2.01c-.11-.53-.17-1.38-.17-2.53v-9.91h2.71v8.87c0,1.42,.05,2.37,.17,2.86,.17,.71,.53,1.27,1.08,1.68,.55,.41,1.23,.61,2.05,.61,.81,0,1.58-.21,2.29-.63s1.22-.98,1.51-1.7c.3-.72,.44-1.76,.44-3.12v-8.57h2.71v15.99h-2.42Z"/><path class="cls-2" d="M364.52,139.59l.39,2.39c-.76,.16-1.45,.24-2.05,.24-.98,0-1.75-.16-2.29-.47-.54-.31-.92-.72-1.14-1.23s-.33-1.57-.33-3.2v-9.2h-1.99v-2.11h1.99v-3.96l2.7-1.63v5.59h2.73v2.11h-2.73v9.35c0,.77,.05,1.27,.14,1.49s.25,.4,.47,.53c.22,.13,.52,.2,.93,.2,.3,0,.7-.03,1.19-.1Z"/><path class="cls-2" d="M367.05,148.18l-.3-2.54c.59,.16,1.11,.24,1.55,.24,.6,0,1.08-.1,1.45-.3,.36-.2,.66-.48,.89-.84,.17-.27,.45-.94,.83-2.02,.05-.15,.13-.37,.24-.66l-6.07-16.02h2.92l3.33,9.26c.43,1.17,.82,2.41,1.16,3.7,.31-1.25,.68-2.46,1.11-3.64l3.42-9.32h2.71l-6.08,16.26c-.65,1.76-1.16,2.97-1.52,3.63-.48,.89-1.03,1.55-1.66,1.96-.62,.42-1.36,.62-2.23,.62-.52,0-1.1-.11-1.75-.33Z"/><path class="cls-2" d="M390.07,137.25l2.68-.42c.15,1.07,.57,1.9,1.26,2.47,.69,.57,1.65,.86,2.88,.86,1.25,0,2.17-.25,2.77-.76,.6-.51,.9-1.1,.9-1.78,0-.61-.27-1.09-.8-1.45-.37-.24-1.29-.55-2.77-.92-1.99-.5-3.37-.94-4.13-1.3-.77-.37-1.35-.87-1.75-1.52s-.59-1.36-.59-2.15c0-.71,.16-1.37,.49-1.98,.33-.61,.77-1.11,1.33-1.51,.42-.31,1-.57,1.72-.79,.73-.22,1.51-.32,2.34-.32,1.25,0,2.36,.18,3.31,.54,.95,.36,1.65,.85,2.1,1.47s.76,1.44,.93,2.48l-2.65,.36c-.12-.82-.47-1.47-1.05-1.93-.58-.46-1.39-.69-2.45-.69-1.24,0-2.13,.21-2.67,.62-.53,.41-.8,.89-.8,1.45,0,.35,.11,.67,.33,.95,.22,.29,.57,.53,1.04,.72,.27,.1,1.07,.33,2.39,.69,1.92,.51,3.25,.93,4.01,1.26,.76,.33,1.35,.8,1.78,1.42,.43,.62,.65,1.39,.65,2.32,0,.9-.26,1.75-.79,2.55-.53,.8-1.29,1.42-2.28,1.85-.99,.44-2.12,.65-3.37,.65-2.08,0-3.66-.43-4.75-1.29-1.09-.86-1.78-2.14-2.09-3.84Z"/><path class="cls-2" d="M417.01,140.05c-1,.85-1.97,1.45-2.9,1.81-.93,.35-1.92,.53-2.99,.53-1.76,0-3.11-.43-4.05-1.29-.94-.86-1.42-1.95-1.42-3.29,0-.78,.18-1.5,.53-2.15s.82-1.17,1.4-1.56c.58-.39,1.23-.69,1.95-.89,.53-.14,1.33-.28,2.41-.41,2.19-.26,3.8-.57,4.83-.93,.01-.37,.02-.61,.02-.71,0-1.1-.26-1.88-.77-2.33-.69-.61-1.72-.92-3.09-.92-1.28,0-2.22,.22-2.82,.67-.61,.45-1.06,1.24-1.35,2.37l-2.65-.36c.24-1.13,.64-2.05,1.19-2.75,.55-.7,1.35-1.23,2.39-1.61,1.04-.38,2.25-.56,3.63-.56,1.36,0,2.47,.16,3.33,.48,.85,.32,1.48,.72,1.88,1.21,.4,.49,.68,1.1,.84,1.84,.09,.46,.14,1.29,.14,2.5v3.61c0,2.52,.06,4.11,.17,4.78,.12,.67,.34,1.31,.69,1.92h-2.83c-.28-.56-.46-1.22-.54-1.97Zm-.23-6.05c-.98,.4-2.46,.74-4.43,1.02-1.11,.16-1.9,.34-2.36,.54-.46,.2-.82,.49-1.07,.88-.25,.39-.38,.82-.38,1.29,0,.72,.27,1.32,.82,1.81,.55,.48,1.35,.72,2.4,.72,1.04,0,1.97-.23,2.78-.69,.81-.46,1.41-1.08,1.79-1.87,.29-.61,.44-1.52,.44-2.71v-.99Z"/><path class="cls-2" d="M423.67,142.02v-22.07h2.71v22.07h-2.71Z"/><path class="cls-2" d="M429.57,134.02c0-2.96,.82-5.15,2.47-6.58,1.38-1.18,3.05-1.78,5.03-1.78,2.2,0,3.99,.72,5.39,2.16,1.39,1.44,2.09,3.43,2.09,5.97,0,2.06-.31,3.68-.93,4.86-.62,1.18-1.52,2.1-2.7,2.75-1.18,.65-2.47,.98-3.86,.98-2.24,0-4.05-.72-5.43-2.15-1.38-1.44-2.07-3.5-2.07-6.2Zm2.79,0c0,2.05,.45,3.58,1.34,4.6,.89,1.02,2.02,1.53,3.37,1.53,1.35,0,2.46-.51,3.36-1.54,.89-1.02,1.34-2.58,1.34-4.68,0-1.98-.45-3.48-1.35-4.49-.9-1.02-2.02-1.53-3.35-1.53-1.36,0-2.48,.51-3.37,1.52-.89,1.01-1.34,2.54-1.34,4.59Z"/><path class="cls-2" d="M447.73,142.02v-15.99h2.44v2.27c1.17-1.76,2.87-2.63,5.09-2.63,.96,0,1.85,.17,2.66,.52,.81,.35,1.41,.8,1.81,1.36,.4,.56,.68,1.23,.84,2,.1,.5,.15,1.38,.15,2.64v9.83h-2.71v-9.73c0-1.1-.11-1.93-.32-2.48-.21-.55-.59-.98-1.12-1.31s-1.17-.49-1.89-.49c-1.15,0-2.15,.37-2.99,1.1-.84,.73-1.26,2.12-1.26,4.17v8.73h-2.71Z"/></g></g></g></svg>